<svg width="130" height="25" viewBox="0 0 130 25" fill="none" xmlns="http://www.w3.org/2000/svg">
<path d="M33.8105 0H3.10828C2.54951 0 2.09654 0.439654 2.09654 0.981981V23.2485C2.09654 23.7908 2.54951 24.2305 3.10828 24.2305H33.8105C34.3693 24.2305 34.8223 23.7908 34.8223 23.2485V0.981981C34.8223 0.439654 34.3693 0 33.8105 0Z" fill="#0266AE"/>
<path d="M125.625 0H39.4194C37.8506 0 36.5788 0.439654 36.5788 0.981981V23.2485C36.5788 23.7908 37.8506 24.2305 39.4194 24.2305H125.625C127.194 24.2305 128.465 23.7908 128.465 23.2485V0.981981C128.465 0.439654 127.194 0 125.625 0Z" fill="#FFDD30"/>
<path fill-rule="evenodd" clip-rule="evenodd" d="M12.1486 8.26035C13.7622 8.26035 15.0704 9.53008 15.0704 11.096C15.0704 11.3812 15.0268 11.6564 14.9463 11.9159H31.5484V14.4425H30.2702V17.7742H28.9611V16.0427H27.6838V17.7742H26.3221V14.4425H14.9624C15.0329 14.6862 15.0704 14.9431 15.0704 15.2085C15.0704 16.7746 13.7622 18.0442 12.1486 18.0442C10.7859 18.0442 9.64114 17.1385 9.31811 15.9136C9.05637 15.9882 8.77963 16.0284 8.49309 16.0284C6.87951 16.0284 5.57143 14.7587 5.57143 13.1926C5.57143 11.6266 6.87951 10.3569 8.49309 10.3569C8.77284 10.3569 9.04327 10.3951 9.29932 10.4664C9.59439 9.20338 10.7581 8.26035 12.1486 8.26035ZM11.1457 14.3826C11.0769 14.527 10.9958 14.6648 10.9039 14.7949C10.8581 14.9246 10.8333 15.0638 10.8333 15.2085C10.8333 15.9136 11.4222 16.4853 12.1486 16.4853C12.8751 16.4853 13.4641 15.9136 13.4641 15.2085C13.4641 14.5034 12.8751 13.9319 12.1486 13.9319C11.7468 13.9319 11.3871 14.1069 11.1457 14.3826ZM9.49614 14.0183C9.56501 13.8742 9.64604 13.7365 9.73782 13.6067C9.78363 13.4768 9.80858 13.3375 9.80858 13.1926C9.80858 12.4876 9.21955 11.9159 8.49309 11.9159C7.76662 11.9159 7.17758 12.4876 7.17758 13.1926C7.17758 13.8977 7.76662 14.4694 8.49309 14.4694C8.8951 14.4694 9.25493 14.2943 9.49614 14.0183ZM12.1486 9.81939C12.8751 9.81939 13.4641 10.3909 13.4641 11.096C13.4641 11.8011 12.8751 12.3728 12.1486 12.3728C11.4222 12.3728 10.8333 11.8011 10.8333 11.096C10.8333 10.3909 11.4222 9.81939 12.1486 9.81939Z" fill="#FFDD30"/>
<path fill-rule="evenodd" clip-rule="evenodd" d="M53.7549 4.09132C56.194 4.09132 58.3792 5.13399 59.8546 6.78027L58.1111 8.47238C57.1095 7.29478 55.5929 6.54402 53.8956 6.54402C50.8795 6.54402 48.4346 8.91409 48.4346 11.8378C48.4346 14.7614 50.8795 17.1315 53.8956 17.1315C55.6146 17.1315 57.1477 16.3613 58.1488 15.1578L59.8738 16.8322C58.3983 18.4912 56.2047 19.5433 53.7549 19.5433C49.3121 19.5433 45.7104 16.0842 45.7104 11.8172C45.7104 7.55036 49.3121 4.09132 53.7549 4.09132ZM66.67 8.19872C69.9801 8.19872 72.6634 10.717 72.6634 13.8238C72.6634 16.9304 69.9801 19.4487 66.67 19.4487C63.3601 19.4487 60.6766 16.9304 60.6766 13.8238C60.6766 10.717 63.3601 8.19872 66.67 8.19872ZM66.67 10.5036C68.6238 10.5036 70.2076 11.9902 70.2076 13.8238C70.2076 15.6574 68.6238 17.1438 66.67 17.1438C64.7163 17.1438 63.1324 15.6574 63.1324 13.8238C63.1324 11.9902 64.7163 10.5036 66.67 10.5036ZM79.6492 8.19872C82.9593 8.19872 85.6426 10.717 85.6426 13.8238C85.6426 16.9304 82.9593 19.4487 79.6492 19.4487C78.2971 19.4487 77.0495 19.0281 76.0468 18.3192V24.2305H73.6558V13.3102H73.681C73.9574 10.4443 76.5238 8.19872 79.6492 8.19872ZM79.6492 10.5036C81.6029 10.5036 83.1868 11.9902 83.1868 13.8238C83.1868 15.6574 81.6029 17.1438 79.6492 17.1438C77.6956 17.1438 76.1117 15.6574 76.1117 13.8238C76.1117 11.9902 77.6956 10.5036 79.6492 10.5036ZM92.7138 8.19872C96.0239 8.19872 98.7073 10.717 98.7073 13.8238C98.7073 16.9304 96.0239 19.4487 92.7138 19.4487C91.3618 19.4487 90.1142 19.0281 89.1113 18.3192V24.2305H86.7205V13.3102H86.7457C87.0221 10.4443 89.5883 8.19872 92.7138 8.19872ZM92.7138 10.5036C94.6676 10.5036 96.2513 11.9902 96.2513 13.8238C96.2513 15.6574 94.6676 17.1438 92.7138 17.1438C90.7601 17.1438 89.1764 15.6574 89.1764 13.8238C89.1764 11.9902 90.7601 10.5036 92.7138 10.5036ZM105.309 8.19872C108.813 8.19872 110.573 11.1209 110.573 13.8497L110.527 14.3786H110.502C110.501 14.3656 110.499 14.3644 110.498 14.3786H101.818C102.094 16.0165 103.071 17.267 105.358 17.267C106.559 17.267 107.622 16.7005 108.273 15.8306L109.87 17.4725C108.771 18.6818 107.877 19.4487 105.309 19.4487C101.686 19.4487 99.4352 16.9304 99.4352 13.8238C99.4352 10.7172 101.805 8.19872 105.309 8.19872ZM108.1 12.7323C107.864 11.6912 107.012 10.3804 105.358 10.3804C103.775 10.3804 102.431 11.3656 101.955 12.7323H108.1ZM111.584 14.3786V4.33999H114.205V14.3786C114.205 15.7597 115.952 17.1738 117.356 17.1738V19.5175C114.549 19.5175 111.584 16.9127 111.584 14.3786ZM119.478 17.1738C119.685 17.1738 119.888 17.2255 120.086 17.3291C120.283 17.4323 120.438 17.5805 120.548 17.7728C120.658 17.9655 120.713 18.1665 120.713 18.375C120.713 18.5818 120.659 18.7811 120.55 18.9717C120.441 19.1629 120.289 19.3112 120.093 19.4165C119.896 19.5224 119.691 19.575 119.478 19.575C119.263 19.575 119.058 19.5224 118.861 19.4165C118.665 19.3112 118.512 19.1629 118.403 18.9717C118.294 18.7811 118.239 18.5818 118.239 18.375C118.239 18.1665 118.295 17.9655 118.406 17.7728C118.517 17.5805 118.671 17.4323 118.869 17.3291C119.067 17.2255 119.269 17.1738 119.478 17.1738ZM119.478 17.3727C119.303 17.3727 119.134 17.416 118.97 17.5024C118.805 17.5887 118.676 17.7126 118.583 17.8732C118.491 18.0341 118.444 18.2013 118.444 18.375C118.444 18.5483 118.49 18.7138 118.581 18.8724C118.672 19.031 118.8 19.1548 118.964 19.2432C119.128 19.3318 119.299 19.3763 119.478 19.3763C119.655 19.3763 119.827 19.3318 119.99 19.2432C120.154 19.1548 120.282 19.031 120.373 18.8724C120.463 18.7138 120.509 18.5483 120.509 18.375C120.509 18.2013 120.462 18.0341 120.37 17.8732C120.277 17.7126 120.149 17.5887 119.984 17.5024C119.819 17.416 119.65 17.3727 119.478 17.3727ZM118.934 19.0375V17.7472H119.392C119.549 17.7472 119.662 17.7593 119.732 17.7831C119.802 17.807 119.857 17.8482 119.899 17.908C119.941 17.9672 119.962 18.0302 119.962 18.0969C119.962 18.1909 119.927 18.2735 119.857 18.343C119.787 18.413 119.695 18.4521 119.58 18.4607C119.627 18.4799 119.665 18.5026 119.693 18.5293C119.747 18.5797 119.812 18.6649 119.89 18.785L120.052 19.0375H119.791L119.673 18.8343C119.58 18.6741 119.504 18.5737 119.447 18.5335C119.408 18.5043 119.351 18.4895 119.275 18.4901H119.149V19.0375H118.934ZM119.149 18.3109H119.41C119.535 18.3109 119.62 18.293 119.665 18.2571C119.71 18.2214 119.733 18.1736 119.733 18.1148C119.733 18.0768 119.722 18.0426 119.7 18.0129C119.678 17.9824 119.648 17.9602 119.61 17.9454C119.57 17.9307 119.499 17.9232 119.393 17.9232H119.149V18.3109Z" fill="#0266AE"/>
</svg>
