<svg width="114" height="25" viewBox="0 0 114 25" fill="none" xmlns="http://www.w3.org/2000/svg">
<path d="M22.6616 9.91478L19.2775 10.5531C19.3694 11.0528 19.3374 11.5663 19.1841 12.0517C19.0307 12.5371 18.7605 12.9806 18.3955 13.3457C16.9822 14.8296 15.4644 14.7199 14.2795 14.1242C13.1935 13.5792 12.5726 12.2832 12.3618 11.7688C14.8727 9.40848 14.5636 6.90545 13.183 4.5974C12.7236 3.8799 12.1138 3.26312 11.3928 2.78666C10.6718 2.3102 9.8555 1.98461 8.99641 1.8308C7.47196 2.27797 6.05662 3.01746 4.83509 4.005L7.09912 6.51472C7.50139 6.18797 7.97815 5.9579 8.49031 5.84338C9.00247 5.72885 9.53545 5.73313 10.0456 5.85585C12.0822 6.29623 12.7432 7.62004 12.8018 8.90864C12.8552 10.0782 12.0185 11.2348 11.6579 11.6775C8.28148 10.7551 6.18952 12.2654 4.80792 14.5756C4.39438 15.3186 4.1462 16.1368 4.07928 16.9777C4.01236 17.8186 4.12818 18.6638 4.41933 19.459C5.58274 20.51 6.95378 21.3237 8.45045 21.8513L9.57016 18.7025C9.0758 18.5298 8.63093 18.2463 8.27208 17.8754C7.91322 17.5044 7.65063 17.0566 7.50586 16.5687C6.88226 14.6454 7.73981 13.4317 8.86659 12.7377C9.89378 12.1063 11.3568 12.2303 11.9297 12.3111C12.788 15.6028 15.1907 16.5984 17.9562 16.5984C18.8294 16.5728 19.6874 16.3713 20.4752 16.0068C21.263 15.6423 21.9632 15.1229 22.5309 14.4818C22.8924 12.9835 22.9368 11.4301 22.6614 9.91473" fill="#E42313"/>
<path d="M16.661 11.038C17.1907 10.9944 17.706 10.8485 18.1763 10.6091C18.6466 10.3697 19.0623 10.0415 19.3988 9.64416C20.977 7.69684 20.3728 6.21773 19.9933 5.50494C19.5936 4.90381 19.0597 4.39655 18.4308 4.02026L18.1904 3.31041L17.6478 1.71732L15.6384 2.855L16.3338 5.0841C20.3926 7.42511 16.661 11.038 16.661 11.038Z" fill="#E42313"/>
<path d="M8.85443 8.48587C8.55041 8.06493 8.16192 7.70722 7.712 7.43397C7.26207 7.16072 6.75989 6.9775 6.23522 6.89517C3.69934 6.54855 2.67487 7.79303 2.22597 8.46808C1.88659 9.10221 1.69871 9.80171 1.67614 10.5152L1.15849 11.0717L0 12.3216L2.02592 13.4322L3.67824 11.7377C3.74928 7.17353 8.85443 8.48587 8.85443 8.48587Z" fill="#E42313"/>
<path d="M15.9507 18.9388C11.8213 21.1608 10.4462 16.2363 10.4462 16.2363C10.2205 16.7008 10.0937 17.2044 10.0734 17.7171C10.053 18.2299 10.1396 18.7413 10.328 19.2211C11.286 21.5151 12.9158 21.7483 13.7432 21.7872C14.4822 21.7539 15.2041 21.5612 15.8559 21.2233L16.6139 21.3776L18.3146 21.7205L18.2973 19.4725L15.9507 18.9388Z" fill="#E42313"/>
<path d="M42.7858 2.97006L46.0328 1.45657V17.536C46.0328 19.1905 46.5437 20.1769 47.5654 20.4952C47.3243 20.9434 46.952 21.3132 46.4948 21.5586C46.0376 21.804 45.5158 21.9141 44.9942 21.8753C43.5216 21.8753 42.7855 20.8888 42.7859 18.9156L42.7858 2.97006Z" fill="#E42313"/>
<path d="M51.7643 13.6467H58.5955C58.3709 11.682 57.2454 10.6997 55.2191 10.6999C53.3663 10.6999 52.2147 11.6822 51.7643 13.6467ZM61.5833 16.0041H51.6475C51.6493 16.4737 51.7517 16.9379 51.9485 17.3674C52.1452 17.7969 52.432 18.1825 52.7907 18.4997C53.5877 19.1248 54.5968 19.4418 55.6222 19.3893C56.0425 19.4226 56.4656 19.3879 56.874 19.2866C57.4381 19.1624 58.1189 18.8373 58.8827 19.1135C59.2788 19.2957 59.6048 19.5947 59.8137 19.9672C59.9811 20.1891 60.1298 20.4235 60.2584 20.6682C59.1157 21.5631 57.4101 22.0103 55.1417 22.0098C53.0201 22.0098 51.3424 21.41 50.1083 20.2104C48.8746 19.0115 48.2577 17.3375 48.2575 15.1884C48.217 14.2432 48.3764 13.2999 48.7259 12.4161C49.0754 11.5323 49.6077 10.7265 50.2903 10.0478C51.5807 8.8253 53.304 8.12189 55.1113 8.08004C56.9187 8.03819 58.675 8.66103 60.0245 9.82241C60.6301 10.4005 61.1054 11.0932 61.4206 11.857C61.7358 12.6207 61.8841 13.4392 61.8561 14.2609C61.8268 14.8494 61.7354 15.4334 61.5835 16.004" fill="#E42313"/>
<path d="M30.4518 13.6467H37.2837C37.0583 11.682 35.9327 10.6997 33.9069 10.6999C32.0529 10.6999 30.9012 11.6822 30.4517 13.6467M40.2711 16.0041H30.3346C30.3366 16.4736 30.4392 16.9377 30.6358 17.3672C30.8325 17.7967 31.119 18.1822 31.4773 18.4997C32.2746 19.1245 33.2835 19.4415 34.3089 19.3893C34.7292 19.4227 35.1523 19.3879 35.5607 19.2866C36.1252 19.1624 36.8052 18.8373 37.5693 19.1135C37.9658 19.2955 38.292 19.5945 38.5009 19.9672C38.6684 20.1891 38.8171 20.4236 38.9457 20.6685C37.803 21.5633 36.0974 22.0104 33.8289 22.0098C31.707 22.0098 30.0291 21.41 28.7952 20.2104C27.5618 19.0115 26.9449 17.3375 26.9443 15.1884C26.9037 14.2431 27.0631 13.2998 27.4127 12.416C27.7622 11.5321 28.2947 10.7263 28.9776 10.0478C29.6076 9.41476 30.3655 8.91341 31.2045 8.57476C32.0434 8.23611 32.9454 8.06739 33.8546 8.07905C34.7442 8.03923 35.633 8.17313 36.4677 8.47272C37.3024 8.7723 38.0659 9.23143 38.7125 9.82259C39.3179 10.4008 39.793 11.0935 40.1081 11.8572C40.4232 12.621 40.5714 13.4394 40.5434 14.2611C40.5136 14.8495 40.4225 15.4335 40.2712 16.0042" fill="#E42313"/>
<path d="M73.6295 21.7868C73.4108 21.785 73.1957 21.7327 73.0021 21.6344C72.8086 21.5361 72.6421 21.3946 72.5167 21.2216C72.3782 21.0203 68.8054 15.7054 68.8054 15.7054L67.2472 17.2976V21.7869H63.9994V3.01039L67.2472 1.56498V13.5111L71.8833 8.3575H75.7936L71.0912 13.4481L76.755 21.7868H73.6295Z" fill="#E42313"/>
<path d="M80.1933 10.856H76.2582L78.584 8.33551H80.1933V5.6015L83.44 4.44787V8.33551H87.2596V10.856H83.44V16.7367C83.3756 17.4463 83.539 18.1579 83.9079 18.7748C84.1131 18.9913 84.3684 19.1579 84.6529 19.2612C84.9374 19.3645 85.2431 19.4016 85.5452 19.3695C86.3186 19.3714 87.0762 19.1583 87.7274 18.7555V21.6389C86.6809 21.9274 85.5937 22.0545 84.5061 22.0156C83.921 22.0522 83.3343 21.9702 82.784 21.7749C82.2336 21.5795 81.7317 21.2751 81.3105 20.8812C80.5652 20.1249 80.1928 19.0485 80.1933 17.652V10.856Z" fill="#E42313"/>
<path d="M98.7696 9.23813C98.2574 10.093 98.5964 11.4153 98.5964 11.4153C97.9291 10.9606 97.1323 10.7169 96.3155 10.7176C95.89 10.7358 95.4724 10.8359 95.0874 11.0119C94.7024 11.1879 94.3577 11.4363 94.0734 11.7426C93.4835 12.418 93.1714 13.2791 93.1964 14.1622V21.8107H89.9497V8.38216H93.1964V9.61029C93.6329 9.11658 94.1776 8.72273 94.7911 8.45727C95.4047 8.1918 96.0717 8.06135 96.7439 8.07536C97.6321 8.05272 98.515 8.2156 99.332 8.55285C99.096 8.73982 98.9041 8.97342 98.7694 9.23794" fill="#E42313"/>
<path d="M107.058 16.6989C107.058 18.5795 106.084 19.52 104.136 19.5204C102.689 19.5204 101.965 18.9183 101.965 17.7143C101.965 16.0932 103.247 15.2824 105.811 15.282C106.231 15.2999 106.648 15.3544 107.058 15.4448V16.6989ZM110.292 17.652V14.7804C110.292 12.1807 109.798 10.4147 108.811 9.48251C107.824 8.55096 106.802 8.06974 104.68 8.06974C103.859 8.05296 103.039 8.1413 102.241 8.33247C99.8941 8.99088 100.856 11.2941 100.856 11.2941L100.864 11.2908L100.862 11.2941V11.2945C100.889 11.2826 100.916 11.2718 100.942 11.2596L101.39 11.0813C102.207 10.8163 103.066 10.689 103.928 10.705C105.997 10.705 107.031 11.495 107.032 13.075C106.591 12.9604 106.138 12.8973 105.681 12.887C103.456 12.887 101.739 13.3258 100.53 14.2034C99.942 14.6223 99.4694 15.174 99.1537 15.8103C98.8381 16.4465 98.689 17.1478 98.7195 17.8527C98.6839 18.4257 98.7808 18.9991 99.0031 19.5315C99.2255 20.0639 99.5677 20.5418 100.005 20.9307C101.004 21.7002 102.262 22.0864 103.538 22.0154C104.325 22.017 105.104 21.8656 105.829 21.5702C106.456 21.3549 106.995 20.9532 107.37 20.4228C107.518 20.8438 107.778 21.22 108.123 21.5138C108.464 21.8262 108.913 22.005 109.383 22.0154C109.767 22.0464 110.153 21.9926 110.512 21.8578C110.903 21.6896 111.22 21.395 111.41 21.0249C110.664 20.5645 110.292 19.4401 110.292 17.6518" fill="#E42313"/>
</svg>
