<svg width="64" height="32" viewBox="0 0 64 32" fill="none" xmlns="http://www.w3.org/2000/svg">
<g clip-path="url(#clip0_465_854)">
<path d="M0.000225067 3.90086C0.000225067 1.7908 1.71781 0.0786629 3.83869 0.0786629H60.1527C62.2718 0.0786629 63.9911 1.7908 63.9911 3.90086V28.0784C63.9911 30.1885 62.2718 31.8989 60.1527 31.8989H3.83869C1.71781 31.8989 0.000225067 30.1885 0.000225067 28.0784V3.90086Z" fill="white"/>
<path d="M0.044445 3.51515C0.044445 1.57438 1.62582 0.0001297 3.57512 0.0001297H60.4711C62.4204 0.0001297 64 1.57438 64 3.51515V3.62685H0.044445V3.51515Z" fill="#FBB110"/>
<path d="M64 28.3978V28.4851C64 30.4258 62.4204 32.0001 60.4711 32.0001H3.57512C1.62582 32.0001 0.044445 30.4258 0.044445 28.4851V28.3978H64Z" fill="#FBB110"/>
<path d="M44.3071 15.9626C44.3071 20.8756 48.3065 24.8584 53.2417 24.8584C58.1751 24.8584 62.1763 20.8756 62.1763 15.9626C62.1763 11.0478 58.1751 7.06508 53.2417 7.06508C48.3065 7.06508 44.3071 11.0478 44.3071 15.9626ZM1.70896 15.9626C1.70896 20.8756 5.71016 24.8584 10.6453 24.8584C15.5787 24.8584 19.5799 20.8756 19.5799 15.9626C19.5799 11.0478 15.5787 7.06508 10.6453 7.06508C5.71016 7.06508 1.70896 11.0478 1.70896 15.9626ZM64 26.7136H19.9461C20.7403 26.1586 21.4797 25.3994 22.2863 24.3749L26.774 18.673L28.7339 21.1391L30.9149 18.2507L29.008 15.8334L33.5753 10.0286C35.0258 8.1873 32.2522 6.02314 30.8017 7.86442L26.7651 12.9956L22.6613 7.79636C21.2091 5.96031 18.4408 8.12971 19.893 9.9675L24.531 15.8352L19.5127 22.2107C17.7297 24.4761 15.9502 26.553 12.4177 26.7136H0.044445V5.31106H43.8666C43.1131 5.85908 42.402 6.59385 41.6308 7.5747L37.1449 13.2748L35.1832 10.8105L33.0039 13.6989L34.9108 16.1144L30.3418 21.9193C28.8931 23.7606 31.6667 25.9247 33.1154 24.0834L37.1537 18.954L41.2575 24.1515C42.7098 25.9893 45.4781 23.8199 44.0258 21.9821L39.3878 16.1127L44.4061 9.73887C46.0441 7.65499 47.6803 5.73167 50.6768 5.31106H64V26.7136ZM47.8926 15.9626C47.8926 13.02 50.2876 10.6359 53.2417 10.6359C56.1957 10.6359 58.589 13.02 58.589 15.9626C58.589 18.9034 56.1957 21.2875 53.2417 21.2875C50.2876 21.2875 47.8926 18.9034 47.8926 15.9626ZM5.29624 15.9626C5.29624 13.02 7.6913 10.6359 10.6453 10.6359C13.5976 10.6359 15.9926 13.02 15.9926 15.9626C15.9926 18.9034 13.5976 21.2875 10.6453 21.2875C7.6913 21.2875 5.29624 18.9034 5.29624 15.9626Z" fill="#E70020"/>
</g>
<defs>
<clipPath id="clip0_465_854">
<rect width="64" height="32" fill="white"/>
</clipPath>
</defs>
</svg>
