<svg width="96" height="23" viewBox="0 0 96 23" fill="none" xmlns="http://www.w3.org/2000/svg">
<g clip-path="url(#clip0_465_860)">
<path d="M21.4022 2.82356C20.1444 2.82356 18.4001 3.32135 17.1335 4.93402C16.9011 5.22873 16.7106 5.60391 16.5983 5.97279C16.2116 7.22918 16.4839 8.61257 17.3333 9.67412C17.9849 10.4899 18.8157 11.1021 19.5486 11.6397C19.9084 11.9024 20.6682 12.5689 20.9131 12.8515C21.28 13.2756 21.5596 13.5262 21.8898 14.4612C22.0896 15.0283 22.1196 15.7729 22.0213 16.196C24.3179 14.0405 26.8252 11.2432 26.8252 8.20153C26.8252 4.70621 24.1212 2.82356 21.4022 2.82356Z" fill="#DD1F26"/>
<path d="M16.6084 14.5402C15.655 13.3134 14.5509 12.5683 13.6404 11.7831C13.2444 11.4423 12.8097 11.1879 12.4872 10.8859C10.9432 9.43753 10.2216 7.64939 10.5855 5.45069C10.8743 3.7246 11.7817 2.59229 12.8754 1.75906C11.5689 0.853603 10.0177 0.363541 8.26608 0.363541C3.91556 0.363541 0.280902 3.66595 0.390636 7.73858C0.58888 15.0908 10.3313 21.3529 14.3449 22.6365C16.4935 21.5943 17.6327 19.653 17.6327 17.6613C17.6327 16.2091 16.9728 15.0094 16.6084 14.5402Z" fill="#BCC032"/>
<path d="M33.6223 14.1614C34.3775 14.6563 35.8667 15.2912 36.9226 15.2912C37.7348 15.2912 38.432 15.0087 38.432 14.1963C38.432 13.4023 37.3383 13.1182 36.2254 12.7125C34.9423 12.2525 33.6596 11.5293 33.6596 9.62147C33.6596 7.07862 35.6783 5.73595 38.6028 5.73595C40.5262 5.73595 42.2426 6.63608 43.1288 7.59098L41.2048 9.46248C40.3368 8.7737 39.3751 8.26184 38.4506 8.26184C37.6959 8.26184 37.1317 8.54394 37.1317 9.1794C37.1317 10.0456 37.9423 10.2584 39.3186 10.7882C40.6385 11.2991 41.9962 12.0422 41.9962 13.8604C41.9962 16.3329 39.8471 17.9242 36.7911 17.9242C34.6415 17.9242 32.8299 17.093 32.1135 16.5636L33.6223 14.1614Z" fill="#DD1F26"/>
<path d="M48.8121 13.313C48.9249 12.7483 48.9622 12.2369 48.9622 11.8467C48.9622 10.9994 48.6796 10.4875 48.0186 10.4875C47.134 10.4875 46.5481 11.299 46.2655 12.7657C46.1516 13.3314 46.0952 13.9324 46.0952 14.3915C46.0952 15.168 46.3224 15.804 47.0212 15.804C47.9436 15.804 48.4902 15.0434 48.8121 13.313ZM48.5471 8.36784C49.8867 8.36784 52.2433 8.84432 52.2433 11.7764C52.2433 12.1651 52.2257 12.6242 52.1491 13.1012C51.5658 16.5635 49.2262 17.9581 46.5481 17.9581C44.2095 17.9581 42.8896 16.6871 42.8896 14.4269C42.8896 14.0023 42.9077 13.4904 43.0019 12.996C43.6997 9.28689 46.3783 8.36784 48.5471 8.36784Z" fill="#DD1F26"/>
<path d="M55.9286 17.6767H52.7779L54.1547 10.3463L54.2309 8.6323H56.7584L56.8149 9.88677C57.5131 8.77433 58.4935 8.36813 59.2854 8.36813C59.833 8.36813 60.4174 8.49125 60.7948 8.72149L59.8884 11.1766C59.5313 10.9992 59.0773 10.8591 58.6063 10.8591C57.7947 10.8591 57.1544 11.3167 56.9846 12.1475L55.9286 17.6767Z" fill="#DD1F26"/>
<path d="M60.1186 17.6767L61.8164 8.63229H64.9676L63.2698 17.6767H60.1186Z" fill="#DD1F26"/>
<path d="M64.1366 4.77679C65.0238 4.77679 65.5704 5.34247 65.5704 6.03126C65.5704 6.96725 64.7029 7.70936 63.5905 7.70936C62.6847 7.70936 62.1754 7.19701 62.1754 6.49028C62.1754 5.57319 63.0056 4.77679 64.1366 4.77679Z" fill="#DD1F26"/>
<path d="M71.7406 10.5754C71.5331 10.4872 71.2313 10.4344 70.8918 10.4344C69.1749 10.4344 68.5532 12.8541 68.5532 14.3029C68.5532 15.1517 68.7608 15.8395 69.6655 15.8395C70.3074 15.8395 70.7598 15.4507 70.9487 14.8327L71.7406 10.5754ZM73.8525 15.7687L73.7215 17.6766H71.062V16.8472L70.9672 16.8288C70.3072 17.553 69.4594 17.9407 68.3269 17.9407C66.3087 17.9407 65.4029 16.5462 65.4029 14.6374C65.4029 11.017 67.553 8.36751 71.4962 8.36751C72.2871 8.36751 73.7017 8.54442 75.1164 9.07422L73.8525 15.7687Z" fill="#DD1F26"/>
<path d="M75.4811 17.6767L76.8394 10.4524L76.9528 8.63232H79.5548L79.5926 9.60467C80.3287 8.84464 81.3096 8.36816 82.573 8.36816C84.1383 8.36816 85.0814 9.039 85.1016 10.5576C85.1016 10.8407 85.0637 11.1946 85.0068 11.529L83.837 17.6767H80.6873L81.6677 12.3952C81.724 12.1131 81.8178 11.7059 81.8178 11.37C81.8178 11.0172 81.6677 10.6284 81.1009 10.6284C80.2903 10.6284 79.8193 11.1945 79.6863 11.9352L78.6117 17.6767H75.4811Z" fill="#DD1F26"/>
<path d="M92.2355 10.5754C92.0284 10.4872 91.7256 10.4344 91.3866 10.4344C89.6707 10.4344 89.048 12.8541 89.048 14.3029C89.048 15.1517 89.2545 15.8395 90.1604 15.8395C90.8022 15.8395 91.2546 15.4507 91.443 14.8327L92.2355 10.5754ZM94.3478 15.7687L94.2158 17.6766H91.5558V16.8472L91.4626 16.8288C90.8022 17.553 89.9533 17.9407 88.8213 17.9407C86.8036 17.9407 85.8978 16.5462 85.8978 14.6374C85.8978 11.017 88.0479 8.36751 91.9911 8.36751C92.7815 8.36751 94.1966 8.54442 95.6118 9.07422L94.3478 15.7687Z" fill="#DD1F26"/>
</g>
<defs>
<clipPath id="clip0_465_860">
<rect width="96" height="23" fill="white"/>
</clipPath>
</defs>
</svg>
