<svg width="102" height="24" viewBox="0 0 102 24" fill="none" xmlns="http://www.w3.org/2000/svg">
<g clip-path="url(#clip0_465_874)">
<path d="M59.1601 12.7717C59.1601 10.4016 58.1262 8.30746 54.6295 8.30746C52.8356 8.30746 51.4105 8.80922 50.6379 9.2484L51.2042 11.1499C51.9156 10.7119 53.0506 10.3513 54.122 10.3513C55.8922 10.3488 56.1822 11.3315 56.1822 11.9633V12.1154C52.318 12.1092 49.8753 13.4194 49.8753 16.0877C49.8753 17.7181 51.1154 19.2466 53.2832 19.2466C54.6058 19.2466 55.7234 18.7228 56.391 17.8959H56.456C56.456 17.8959 56.8961 19.703 59.3301 19.0123C59.2063 18.2554 59.1601 17.458 59.1601 16.4888V12.7717ZM56.2773 15.2743C56.2773 15.4657 56.261 15.6644 56.2035 15.835C55.9809 16.5649 55.2134 17.1758 54.2583 17.1758C53.452 17.1758 52.8193 16.728 52.8193 15.7896C52.8193 14.3542 54.4345 13.9592 56.2773 13.969" fill="#0071CE"/>
<path d="M0 5.08266C0 5.08266 2.524 15.2158 2.92531 16.8572C3.39785 18.7759 4.24419 19.485 6.68697 19.0127L8.26463 12.7291C8.66343 11.1724 8.93468 10.056 9.19224 8.46978H9.23596C9.41474 10.0719 9.67229 11.1724 9.99856 12.734C9.99856 12.734 10.6424 15.5888 10.9762 17.0842C11.3012 18.5796 12.2163 19.523 14.6128 19.0127L18.3682 5.08266H15.3366L14.0478 11.1086C13.7065 12.8543 13.3964 14.2295 13.1551 15.8292H13.1114C12.8939 14.2467 12.6176 12.9279 12.2626 11.2178L10.9274 5.08266H7.76459L6.33941 11.0607C5.93311 12.8862 5.55308 14.3497 5.31429 15.8991H5.27305C5.02679 14.4454 4.693 12.5942 4.33919 10.8375C4.33919 10.8375 3.49285 6.55724 3.19409 5.08266" fill="#0071CE"/>
<path d="M26.8167 12.7717C26.8167 10.4016 25.7803 8.30746 22.2837 8.30746C20.4948 8.30746 19.0671 8.80922 18.2946 9.2484L18.8608 11.1499C19.5697 10.7119 20.7036 10.3513 21.7787 10.3513C23.5488 10.3488 23.8389 11.3315 23.8389 11.9633V12.1154C19.9747 12.1092 17.5295 13.4194 17.5295 16.0877C17.5295 17.7181 18.7746 19.2466 20.9323 19.2466C22.2674 19.2466 23.3751 18.7228 24.0427 17.8959H24.1101C24.1101 17.8959 24.5527 19.703 26.9842 19.0123C26.8592 18.2554 26.8167 17.458 26.8167 16.4888V12.7717ZM23.9314 15.2743C23.9314 15.4657 23.9152 15.6644 23.8601 15.835C23.6351 16.5649 22.8675 17.1758 21.9099 17.1758C21.1086 17.1758 20.4735 16.728 20.4735 15.7896C20.4735 14.3542 22.0886 13.9592 23.9314 13.969" fill="#0071CE"/>
<path d="M28.3898 5.08266V19.0078H31.2751V16.0549V5.08266H28.3898Z" fill="#0071CE"/>
<path d="M68.0155 5.08266V15.3569C68.0155 16.775 68.2867 17.7638 68.8705 18.3699C69.3831 18.901 70.2219 19.247 71.2208 19.247C72.0784 19.247 72.9172 19.0851 73.3135 18.944L73.2785 16.7321C72.9822 16.7996 72.6434 16.8572 72.1784 16.8572C71.1933 16.8572 70.8683 16.2451 70.8683 14.9717V11.0386H73.381V8.37777H70.8683V5.08266" fill="#0071CE"/>
<path d="M60.5579 8.54914V19.0123H63.5407V13.6538C63.5407 13.3655 63.5594 13.1164 63.6057 12.8858C63.8282 11.7559 64.702 11.0407 65.961 11.0407C66.3123 11.0407 66.551 11.0788 66.8161 11.1192V8.37617C66.5935 8.33691 66.4423 8.31606 66.1685 8.31606C65.0521 8.31606 63.787 9.01164 63.2531 10.5267H63.1794V8.54914" fill="#0071CE"/>
<path d="M32.9506 8.54914V19.0123H35.8571V12.8711C35.8571 12.5828 35.8896 12.2883 35.9934 12.0221C36.2297 11.4002 36.816 10.68 37.7574 10.68C38.9275 10.68 39.48 11.6492 39.48 13.0477V19.0123H42.3791V12.7975C42.3791 12.5263 42.4179 12.1939 42.4991 11.9534C42.7317 11.248 43.3667 10.68 44.2444 10.68C45.427 10.68 45.9995 11.6283 45.9995 13.2771V19.0123H48.896V12.8429C48.896 9.60172 47.2159 8.31606 45.3082 8.31606C44.4694 8.31606 43.8018 8.51847 43.2017 8.8816C42.6941 9.18706 42.2491 9.61766 41.8503 10.1808H41.8066C41.3478 9.05457 40.2702 8.31606 38.8625 8.31606C37.0573 8.31606 36.2372 9.21037 35.7547 9.96607H35.7109V8.54914" fill="#0071CE"/>
<path d="M88.9912 8.07953C89.5613 8.07953 90.0413 7.78756 90.1038 7.41217L90.6689 1.13109C90.6689 0.509112 89.9226 0 88.9912 0C88.0549 0 87.3135 0.509112 87.3135 1.13109L87.8836 7.41217C87.9436 7.78756 88.4211 8.07953 88.9912 8.07953Z" fill="#FFC220"/>
<path d="M85.5242 10.045C85.8067 9.55425 85.7904 9.00956 85.4855 8.76666L80.2099 5.14645C79.6611 4.8324 78.8397 5.20656 78.3697 5.99906C77.9009 6.79032 77.9959 7.67851 78.5334 7.98643L84.374 10.6436C84.7479 10.781 85.2366 10.5259 85.5242 10.04" fill="#FFC220"/>
<path d="M92.4575 10.0398C92.7562 10.5256 93.245 10.7808 93.6088 10.6507L99.4495 7.98617C99.992 7.67212 100.073 6.79252 99.6145 6.00125C99.1457 5.20875 98.3193 4.83704 97.7718 5.14496L92.495 8.76149C92.2024 9.00807 92.1812 9.55522 92.4637 10.0447" fill="#FFC220"/>
<path d="M88.9912 15.9254C89.5613 15.9254 90.0413 16.2173 90.1038 16.5927L90.6689 22.8738C90.6689 23.4958 89.9226 24 88.9912 24C88.0549 24 87.3135 23.4958 87.3135 22.8738L87.8836 16.5927C87.9436 16.2173 88.4211 15.9254 88.9912 15.9254Z" fill="#FFC220"/>
<path d="M92.4575 13.9655C92.7562 13.4784 93.245 13.2184 93.6088 13.3594L99.4495 16.0191C99.992 16.327 100.073 17.214 99.6145 18.0065C99.1457 18.7928 98.3193 19.167 97.7718 18.8591L92.495 15.2376C92.2024 14.9935 92.1812 14.4488 92.4637 13.9655" fill="#FFC220"/>
<path d="M85.5242 13.9601C85.8067 14.4496 85.7904 14.993 85.4855 15.2384L80.2099 18.8537C79.6611 19.1677 78.8397 18.7923 78.3697 18.006C77.9009 17.2147 77.9959 16.3265 78.5334 16.0186L84.374 13.359C84.7479 13.2191 85.2366 13.4767 85.5242 13.9601Z" fill="#FFC220"/>
<path d="M101.159 18.3079H101.231C101.33 18.3079 101.37 18.3386 101.381 18.4158C101.402 18.5017 101.414 18.5594 101.435 18.5839H101.622C101.606 18.5655 101.585 18.5189 101.574 18.4109C101.552 18.3177 101.504 18.2649 101.435 18.2465V18.2294C101.53 18.2085 101.585 18.1459 101.585 18.0687C101.585 17.9987 101.552 17.9484 101.52 17.9165C101.457 17.8871 101.397 17.8638 101.265 17.8638C101.147 17.8638 101.061 17.8736 100.992 17.8896V18.5839H101.159V18.3079ZM101.164 17.9914L101.249 17.9803C101.349 17.9803 101.402 18.0257 101.402 18.0895C101.402 18.1607 101.33 18.1938 101.237 18.1938H101.164V17.9914ZM101.27 17.5203C100.86 17.5203 100.535 17.8343 100.535 18.2196C100.535 18.6146 100.86 18.9286 101.27 18.9286C101.685 18.9286 102 18.6146 102 18.2196C102 17.8343 101.685 17.5203 101.27 17.5203ZM101.27 17.6614C101.585 17.6614 101.819 17.9116 101.819 18.2196C101.819 18.5299 101.585 18.7876 101.27 18.7826C100.955 18.7826 100.716 18.5299 100.716 18.2196C100.716 17.9116 100.955 17.6614 101.265 17.6614" fill="#FFC220"/>
</g>
<defs>
<clipPath id="clip0_465_874">
<rect width="102" height="24" fill="white"/>
</clipPath>
</defs>
</svg>
