<svg width="12" height="12" viewBox="0 0 12 12" fill="none" xmlns="http://www.w3.org/2000/svg">
<g opacity="0.6" clip-path="url(#clip0_465_731)">
<path d="M4.33594 5.84989C4.72182 6.64677 5.36619 7.28949 6.16406 7.67333C6.22292 7.7012 6.28801 7.71326 6.35294 7.70833C6.41788 7.7034 6.4804 7.68164 6.53437 7.64521L7.70625 6.86239C7.75802 6.82728 7.81785 6.80585 7.88015 6.80011C7.94245 6.79437 8.00518 6.80451 8.0625 6.82958L10.2562 7.77177C10.3312 7.80297 10.3939 7.85796 10.4345 7.92826C10.4752 7.99856 10.4916 8.08028 10.4812 8.16083C10.4117 8.70352 10.1468 9.20228 9.73614 9.56379C9.32546 9.92529 8.79713 10.1248 8.25 10.1249C6.55924 10.1249 4.93774 9.45324 3.74219 8.2577C2.54665 7.06215 1.875 5.44065 1.875 3.74989C1.87512 3.20277 2.0746 2.67443 2.43611 2.26375C2.79761 1.85306 3.29637 1.58817 3.83906 1.51864C3.91961 1.5083 4.00133 1.52472 4.07163 1.56537C4.14193 1.60603 4.19692 1.66867 4.22812 1.74364L5.17031 3.94208C5.19481 3.99849 5.20506 4.06007 5.20016 4.12137C5.19525 4.18268 5.17535 4.24184 5.14219 4.29364L4.35937 5.48427C4.32452 5.53812 4.30407 5.60001 4.29997 5.66402C4.29586 5.72804 4.30825 5.79203 4.33594 5.84989V5.84989Z" stroke="white" stroke-linecap="round" stroke-linejoin="round"/>
</g>
<defs>
<clipPath id="clip0_465_731">
<rect width="12" height="12" fill="white"/>
</clipPath>
</defs>
</svg>
