<svg width="18" height="18" viewBox="0 0 18 18" fill="none" xmlns="http://www.w3.org/2000/svg">
<path d="M5.24978 6.49854H2.43298C2.30796 6.49854 2.20667 6.59988 2.20667 6.72485V15.774C2.20667 15.8991 2.30796 16.0004 2.43298 16.0004H5.24978C5.3748 16.0004 5.4761 15.8991 5.4761 15.774V6.72485C5.4761 6.59988 5.3748 6.49854 5.24978 6.49854Z" fill="white"/>
<path d="M3.84312 2C2.8182 2 1.98438 2.83292 1.98438 3.8567C1.98438 4.88094 2.8182 5.71418 3.84312 5.71418C4.86722 5.71418 5.70036 4.8809 5.70036 3.8567C5.70041 2.83292 4.86722 2 3.84312 2Z" fill="white"/>
<path d="M12.416 6.27344C11.2847 6.27344 10.4484 6.75978 9.9411 7.31239V6.72466C9.9411 6.59969 9.83981 6.49835 9.71479 6.49835H7.0172C6.89219 6.49835 6.79089 6.59969 6.79089 6.72466V15.7739C6.79089 15.8989 6.89219 16.0002 7.0172 16.0002H9.82786C9.95287 16.0002 10.0542 15.8989 10.0542 15.7739V11.2966C10.0542 9.78787 10.464 9.2001 11.5157 9.2001C12.6611 9.2001 12.7521 10.1424 12.7521 11.3742V15.7739C12.7521 15.8989 12.8534 16.0002 12.9784 16.0002H15.7901C15.9151 16.0002 16.0164 15.8989 16.0164 15.7739V10.8103C16.0164 8.56683 15.5887 6.27344 12.416 6.27344Z" fill="white"/>
</svg>
