<svg width="20" height="20" viewBox="0 0 20 20" fill="none" xmlns="http://www.w3.org/2000/svg">
<path d="M16.4 6.5998V7.0998C16.4 11.8998 13.1 17.1998 7.10001 17.1998C5.20001 17.1998 3.50001 16.7998 2.10001 15.7998C2.40001 15.7998 2.60001 15.8998 2.90001 15.8998C4.40001 15.8998 5.90001 15.2998 7.00001 14.2998C5.60001 14.2998 4.40001 13.1998 3.90001 11.7998C4.10001 11.7998 4.30001 11.8998 4.50001 11.8998C4.80001 11.8998 5.20001 11.8998 5.50001 11.7998C3.90001 11.3998 3.00001 9.89981 3.00001 8.0998C3.00001 8.39981 3.70001 8.4998 4.20001 8.5998C3.30001 7.89981 2.80001 6.7998 2.80001 5.5998C2.80001 4.8998 2.90001 4.2998 3.20001 3.7998C4.80001 5.9998 7.10001 7.39981 9.80001 7.5998V6.6998C9.80001 4.6998 11.3 2.7998 13.1 2.7998C14 2.7998 14.9 3.4998 15.5 4.1998C16.2 3.9998 16.9 3.6998 17.6 3.2998C17.4 4.0998 16.8 4.8998 16.2 5.2998C16.8 5.19981 17.4 4.9998 18 4.6998C17.6 5.4998 17 6.0998 16.4 6.5998Z" fill="white"/>
</svg>
