<svg width="20" height="20" viewBox="0 0 20 20" fill="none" xmlns="http://www.w3.org/2000/svg">
<path d="M17.8 6.7C17.8 5.8 17.6 5.3 17.4 4.8C17.2 4.2 16.9 3.8 16.4 3.4C15.9 2.9 15.5 2.7 15 2.4C14.5 2.2 13.9 2.1 13.1 2H10C7.9 2 7.5 2 6.7 2.1C5.8 2.1 5.3 2.3 4.8 2.5C4.2 2.7 3.8 2.9 3.4 3.4C2.9 3.8 2.7 4.3 2.4 4.8C2.2 5.4 2.1 5.9 2.1 6.8C2 7.5 2 7.8 2 10C2 12.2 2 12.5 2.1 13.3C2.1 14.2 2.3 14.7 2.5 15.2C2.7 15.8 3 16.2 3.5 16.6C4 17 4.4 17.3 4.9 17.6C5.3 17.8 6 17.9 6.8 18H10C12.1 18 12.4 18 13.2 17.9C14.1 17.9 14.6 17.7 15.1 17.5C15.7 17.3 16.1 17 16.5 16.5C17 16 17.2 15.6 17.5 15.1C17.7 14.6 17.8 14 17.9 13.2C17.9 12.3 18 12.2 18 10C17.9 7.9 17.9 7.5 17.8 6.7ZM16.4 13.2C16.4 14 16.2 14.4 16.2 14.7C16 15.1 15.9 15.3 15.6 15.6C15.4 15.8 15 16.1 14.7 16.2C14.4 16.3 14 16.4 13.2 16.4C12.3 16.4 12.1 16.5 10 16.5C7.9 16.5 7.6 16.5 6.8 16.4C6 16.4 5.6 16.2 5.3 16.2C4.8 16.1 4.6 16 4.3 15.6C4.1 15.4 3.8 15 3.7 14.7C3.5 14.4 3.4 14 3.4 13.2C3.4 12.3 3.3 12.1 3.3 10C3.3 7.8 3.3 7.6 3.4 6.8C3.4 6 3.6 5.6 3.6 5.3C3.8 4.9 3.9 4.7 4.2 4.4C4.4 4.2 4.8 3.9 5.1 3.8C5.6 3.7 6 3.5 6.8 3.5C7.7 3.5 8 3.4 10 3.4C12 3.4 12.3 3.4 13.1 3.5C13.9 3.5 14.3 3.7 14.6 3.7C15 3.9 15.2 4 15.5 4.3C15.8 4.6 16 5 16.1 5.3C16.3 5.6 16.4 6 16.4 6.8C16.4 7.7 16.5 7.9 16.5 10C16.5 12.2 16.5 12.4 16.4 13.2ZM10 5.9C7.8 5.9 5.9 7.7 5.9 10C5.9 12.3 7.7 14.1 10 14.1C12.3 14.1 14 12.2 14 10C14 7.8 12.2 5.9 10 5.9ZM10 12.6C8.6 12.6 7.4 11.4 7.4 10C7.4 8.6 8.5 7.4 10 7.4C11.5 7.4 12.6 8.6 12.6 10C12.6 11.4 11.4 12.6 10 12.6ZM15.1 5.8C15.1 6.4 14.7 6.8 14.1 6.8C13.5 6.8 13.1 6.4 13.1 5.8C13.1 5.2 13.5 4.8 14.1 4.8C14.7 4.8 15.1 5.2 15.1 5.8Z" fill="white"/>
</svg>
