<svg width="20" height="20" viewBox="0 0 20 20" fill="none" xmlns="http://www.w3.org/2000/svg">
<path d="M15.2566 5.42183C15.1475 5.36602 15.0414 5.30483 14.9386 5.23851C14.6395 5.04267 14.3653 4.81191 14.1219 4.55121C13.5128 3.86091 13.2853 3.16061 13.2015 2.6703H13.2049C13.1349 2.26332 13.1638 2 13.1682 2H10.3941V12.6255C10.3941 12.7681 10.3941 12.9091 10.388 13.0484C10.388 13.0658 10.3863 13.0818 10.3853 13.1004C10.3853 13.1081 10.3853 13.1161 10.3836 13.1241C10.3836 13.1261 10.3836 13.1281 10.3836 13.1301C10.3544 13.5114 10.231 13.8796 10.0244 14.2026C9.81769 14.5255 9.53408 14.7931 9.19846 14.982C8.84868 15.1791 8.45307 15.2825 8.05064 15.282C6.75813 15.282 5.71059 14.2381 5.71059 12.9488C5.71059 11.6595 6.75813 10.6156 8.05064 10.6156C8.29531 10.6153 8.53847 10.6535 8.7711 10.7286L8.77447 7.9307C8.06827 7.84035 7.35082 7.89594 6.6674 8.09398C5.98397 8.29201 5.3494 8.62819 4.80371 9.08131C4.32555 9.49283 3.92357 9.98383 3.61584 10.5322C3.49874 10.7322 3.05691 11.5359 3.0034 12.8401C2.96975 13.5804 3.1942 14.3474 3.30121 14.6644V14.671C3.36851 14.8577 3.6293 15.4947 4.05431 16.0316C4.39702 16.4624 4.80192 16.8407 5.25597 17.1546V17.1479L5.2627 17.1546C6.60569 18.0585 8.09473 17.9992 8.09473 17.9992C8.35249 17.9889 9.21596 17.9992 10.1965 17.5389C11.2841 17.0286 11.9033 16.2683 11.9033 16.2683C12.2989 15.814 12.6134 15.2963 12.8334 14.7374C13.0844 14.0837 13.1682 13.2998 13.1682 12.9865V7.3494C13.2019 7.3694 13.6501 7.66305 13.6501 7.66305C13.6501 7.66305 14.2958 8.07303 15.3033 8.34002C16.0262 8.53001 17 8.57001 17 8.57001V5.84214C16.6588 5.87881 15.9659 5.77215 15.2566 5.42183Z" fill="white"/>
</svg>
